M48
; DRILL file {KiCad (6.0.4)} date Mon Mar 28 09:41:57 2022
; FORMAT={-:-/ absolute / metric / decimal}
; #@! TF.CreationDate,2022-03-28T09:41:57-07:00
; #@! TF.GenerationSoftware,Kicad,Pcbnew,(6.0.4)
; #@! TF.FileFunction,Plated,1,2,PTH
FMAT,2
METRIC
; #@! TA.AperFunction,Plated,PTH,ViaDrill
T1C0.400
; #@! TA.AperFunction,Plated,PTH,ComponentDrill
T2C1.000
; #@! TA.AperFunction,Plated,PTH,ComponentDrill
T3C1.092
; #@! TA.AperFunction,Plated,PTH,ComponentDrill
T4C1.470
%
G90
G05
T1
X33.33Y-76.75
X34.055Y-81.121
X34.779Y-76.75
X42.945Y-76.75
X48.05Y-61.04
X51.83Y-42.03
X51.83Y-57.27
X51.83Y-59.81
X51.835Y-76.75
X53.105Y-59.81
X53.105Y-81.121
X54.34Y-39.49
X54.34Y-42.03
X54.34Y-57.27
X54.34Y-59.81
X57.073Y-87.25
X60.05Y-72.15
X63.685Y-94.665
X65.135Y-94.665
X72.155Y-57.27
X72.155Y-59.81
X72.155Y-78.0
X74.695Y-30.956
X91.205Y-49.546
X91.205Y-68.596
X93.745Y-30.956
X109.425Y-42.405
X110.255Y-49.546
X110.255Y-68.596
X119.145Y-33.496
X128.035Y-38.7
X128.035Y-41.947
X148.355Y-49.546
X166.135Y-37.925
X166.135Y-41.949
X167.405Y-59.81
X167.779Y-41.949
X185.185Y-76.75
X186.455Y-59.81
X186.455Y-68.596
X187.44Y-87.381
X187.725Y-76.75
X188.44Y-87.381
X193.4Y-72.15
X211.634Y-62.086
X213.151Y-64.626
X218.25Y-67.166
T2
X35.365Y-85.936
X35.365Y-100.436
X37.865Y-100.436
X40.365Y-85.936
X40.365Y-100.436
X68.385Y-45.561
X70.925Y-45.561
X83.95Y-31.87
X86.49Y-31.87
X216.483Y-62.086
X216.483Y-64.626
X216.483Y-67.166
X216.737Y-89.266
X216.737Y-91.806
X216.737Y-94.346
X216.737Y-96.886
T3
X49.295Y-31.87
X49.295Y-34.41
X49.295Y-36.95
X49.295Y-39.49
X49.295Y-42.03
X49.295Y-44.57
X49.295Y-47.11
X49.295Y-49.65
X49.295Y-52.19
X49.295Y-54.73
X49.295Y-57.27
X49.295Y-59.81
X64.535Y-31.87
X64.535Y-34.41
X64.535Y-36.95
X64.535Y-39.49
X64.535Y-42.03
X64.535Y-44.57
X64.535Y-47.11
X64.535Y-49.65
X64.535Y-52.19
X64.535Y-54.73
X64.535Y-57.27
X64.535Y-59.81
T4
X34.055Y-33.496
X34.055Y-52.546
X34.055Y-71.596
X34.055Y-90.646
X36.436Y-90.646
X38.817Y-90.646
X40.405Y-30.956
X40.405Y-50.006
X40.405Y-69.056
X40.405Y-88.106
X42.786Y-88.106
X45.167Y-88.106
X45.961Y-90.646
X48.342Y-90.646
X52.311Y-88.106
X53.105Y-33.496
X53.105Y-52.546
X53.105Y-71.596
X53.105Y-90.646
X54.692Y-88.106
X59.455Y-30.956
X59.455Y-50.006
X59.455Y-69.056
X59.455Y-88.106
X67.392Y-90.646
X69.773Y-90.646
X72.155Y-33.496
X72.155Y-52.546
X72.155Y-71.596
X72.155Y-90.646
X73.742Y-88.106
X76.123Y-88.106
X78.505Y-30.956
X78.505Y-50.006
X78.505Y-69.056
X78.505Y-88.106
X91.205Y-33.496
X91.205Y-52.546
X91.205Y-71.596
X91.205Y-90.646
X97.555Y-30.956
X97.555Y-50.006
X97.555Y-69.056
X97.555Y-88.106
X100.73Y-90.646
X100.73Y-90.646
X107.08Y-88.106
X107.08Y-88.106
X110.255Y-33.496
X110.255Y-52.546
X110.255Y-71.596
X110.255Y-90.646
X116.605Y-30.956
X116.605Y-50.006
X116.605Y-69.056
X116.605Y-88.106
X119.78Y-90.646
X119.78Y-90.646
X119.78Y-90.646
X119.78Y-90.646
X126.13Y-88.106
X126.13Y-88.106
X126.13Y-88.106
X126.13Y-88.106
X129.305Y-33.496
X129.305Y-52.546
X129.305Y-71.596
X129.305Y-90.646
X135.655Y-30.956
X135.655Y-50.006
X135.655Y-69.056
X135.655Y-88.106
X138.83Y-90.646
X141.211Y-90.646
X145.18Y-88.106
X147.561Y-88.106
X148.355Y-33.496
X148.355Y-52.546
X148.355Y-71.596
X148.355Y-90.646
X154.705Y-30.956
X154.705Y-50.006
X154.705Y-69.056
X154.705Y-88.106
X167.405Y-33.496
X167.405Y-52.546
X167.405Y-71.596
X167.405Y-90.646
X169.786Y-90.646
X172.167Y-90.646
X173.755Y-30.956
X173.755Y-50.006
X173.755Y-69.056
X173.755Y-88.106
X176.136Y-88.106
X178.517Y-88.106
X186.455Y-33.496
X186.455Y-52.546
X186.455Y-71.596
X186.455Y-90.646
X191.217Y-90.646
X192.805Y-30.956
X192.805Y-50.006
X192.805Y-69.056
X192.805Y-88.106
X193.599Y-90.646
X197.567Y-88.106
X199.948Y-88.106
X200.742Y-90.646
X203.123Y-90.646
X205.505Y-33.496
X205.505Y-52.546
X205.505Y-71.596
X205.505Y-90.646
X207.092Y-88.106
X209.474Y-88.106
X211.855Y-30.956
X211.855Y-50.006
X211.855Y-69.056
X211.855Y-88.106
T0
M30
