M48
; DRILL file {KiCad (6.0.4)} date Mon Mar 28 09:41:57 2022
; FORMAT={-:-/ absolute / metric / decimal}
; #@! TF.CreationDate,2022-03-28T09:41:57-07:00
; #@! TF.GenerationSoftware,Kicad,Pcbnew,(6.0.4)
; #@! TF.FileFunction,NonPlated,1,2,NPTH
FMAT,2
METRIC
; #@! TA.AperFunction,NonPlated,NPTH,ComponentDrill
T1C1.750
; #@! TA.AperFunction,NonPlated,NPTH,ComponentDrill
T2C2.200
; #@! TA.AperFunction,NonPlated,NPTH,ComponentDrill
T3C3.048
; #@! TA.AperFunction,NonPlated,NPTH,ComponentDrill
T4C3.988
%
G90
G05
T1
X32.785Y-36.036
X32.785Y-55.086
X32.785Y-74.136
X32.785Y-93.186
X35.166Y-93.186
X37.547Y-93.186
X42.945Y-36.036
X42.945Y-55.086
X42.945Y-74.136
X42.945Y-93.186
X44.691Y-93.186
X45.326Y-93.186
X47.072Y-93.186
X47.707Y-93.186
X51.835Y-36.036
X51.835Y-55.086
X51.835Y-74.136
X51.835Y-93.186
X54.851Y-93.186
X57.232Y-93.186
X61.995Y-36.036
X61.995Y-55.086
X61.995Y-74.136
X61.995Y-93.186
X66.122Y-93.186
X68.504Y-93.186
X70.885Y-36.036
X70.885Y-55.086
X70.885Y-74.136
X70.885Y-93.186
X76.282Y-93.186
X78.663Y-93.186
X81.045Y-36.036
X81.045Y-55.086
X81.045Y-74.136
X81.045Y-93.186
X89.935Y-36.036
X89.935Y-55.086
X89.935Y-74.136
X89.935Y-93.186
X99.46Y-93.186
X99.46Y-93.186
X100.095Y-36.036
X100.095Y-55.086
X100.095Y-74.136
X100.095Y-93.186
X108.985Y-36.036
X108.985Y-55.086
X108.985Y-74.136
X108.985Y-93.186
X109.62Y-93.186
X109.62Y-93.186
X118.51Y-93.186
X118.51Y-93.186
X118.51Y-93.186
X118.51Y-93.186
X119.145Y-36.036
X119.145Y-55.086
X119.145Y-74.136
X119.145Y-93.186
X128.035Y-36.036
X128.035Y-55.086
X128.035Y-74.136
X128.035Y-93.186
X128.67Y-93.186
X128.67Y-93.186
X128.67Y-93.186
X128.67Y-93.186
X137.56Y-93.186
X138.195Y-36.036
X138.195Y-55.086
X138.195Y-74.136
X138.195Y-93.186
X139.941Y-93.186
X147.085Y-36.036
X147.085Y-55.086
X147.085Y-74.136
X147.085Y-93.186
X147.72Y-93.186
X150.101Y-93.186
X157.245Y-36.036
X157.245Y-55.086
X157.245Y-74.136
X157.245Y-93.186
X166.135Y-36.036
X166.135Y-55.086
X166.135Y-74.136
X166.135Y-93.186
X168.516Y-93.186
X170.897Y-93.186
X176.295Y-36.036
X176.295Y-55.086
X176.295Y-74.136
X176.295Y-93.186
X178.676Y-93.186
X181.057Y-93.186
X185.185Y-36.036
X185.185Y-55.086
X185.185Y-74.136
X185.185Y-93.186
X189.947Y-93.186
X192.328Y-93.186
X195.345Y-36.036
X195.345Y-55.086
X195.345Y-74.136
X195.345Y-93.186
X199.472Y-93.186
X200.107Y-93.186
X201.853Y-93.186
X202.488Y-93.186
X204.235Y-36.036
X204.235Y-55.086
X204.235Y-74.136
X204.235Y-93.186
X209.632Y-93.186
X212.013Y-93.186
X214.395Y-36.036
X214.395Y-55.086
X214.395Y-74.136
X214.395Y-93.186
T2
X45.034Y-45.561
X47.39Y-83.661
X199.79Y-45.561
X199.79Y-83.661
T3
X66.44Y-100.171
X73.59Y-100.171
X75.965Y-100.171
X75.965Y-100.171
X92.633Y-100.171
X92.633Y-100.171
X111.683Y-100.171
X114.065Y-100.171
X116.446Y-100.171
X116.446Y-100.171
X130.733Y-100.171
X133.115Y-100.171
X133.115Y-100.171
X135.496Y-100.171
X154.546Y-100.171
X156.927Y-100.171
X171.215Y-100.171
X171.215Y-100.171
X173.59Y-100.171
X180.74Y-100.171
T4
X37.865Y-36.036
X37.865Y-55.086
X37.865Y-74.136
X37.865Y-93.186
X40.246Y-93.186
X42.627Y-93.186
X49.771Y-93.186
X52.152Y-93.186
X56.915Y-36.036
X56.915Y-55.086
X56.915Y-74.136
X56.915Y-93.186
X66.44Y-84.931
X71.202Y-93.186
X73.584Y-93.186
X73.59Y-84.931
X75.965Y-36.036
X75.965Y-55.086
X75.965Y-74.136
X75.965Y-84.931
X75.965Y-84.931
X75.965Y-93.186
X92.633Y-84.931
X92.633Y-84.931
X95.015Y-36.036
X95.015Y-55.086
X95.015Y-74.136
X95.015Y-93.186
X104.54Y-93.186
X104.54Y-93.186
X111.683Y-84.931
X114.065Y-36.036
X114.065Y-55.086
X114.065Y-74.136
X114.065Y-84.931
X114.065Y-93.186
X116.446Y-84.931
X116.446Y-84.931
X123.59Y-93.186
X123.59Y-93.186
X123.59Y-93.186
X123.59Y-93.186
X130.733Y-84.931
X133.115Y-36.036
X133.115Y-55.086
X133.115Y-74.136
X133.115Y-84.931
X133.115Y-84.931
X133.115Y-93.186
X135.496Y-84.931
X142.64Y-93.186
X145.021Y-93.186
X152.165Y-36.036
X152.165Y-55.086
X152.165Y-74.136
X152.165Y-93.186
X154.546Y-84.931
X156.927Y-84.931
X171.215Y-36.036
X171.215Y-55.086
X171.215Y-74.136
X171.215Y-84.931
X171.215Y-84.931
X171.215Y-93.186
X173.59Y-84.931
X173.596Y-93.186
X175.977Y-93.186
X180.74Y-84.931
X190.265Y-36.036
X190.265Y-55.086
X190.265Y-74.136
X190.265Y-93.186
X195.027Y-93.186
X197.409Y-93.186
X204.552Y-93.186
X206.933Y-93.186
X209.315Y-36.036
X209.315Y-55.086
X209.315Y-74.136
X209.315Y-93.186
T0
M30
