%TF.GenerationSoftware,KiCad,Pcbnew,(6.0.4)*%
%TF.CreationDate,2022-03-28T09:41:55-07:00*%
%TF.ProjectId,Electrolytes,456c6563-7472-46f6-9c79-7465732e6b69,rev?*%
%TF.SameCoordinates,Original*%
%TF.FileFunction,Soldermask,Top*%
%TF.FilePolarity,Negative*%
%FSLAX46Y46*%
G04 Gerber Fmt 4.6, Leading zero omitted, Abs format (unit mm)*
G04 Created by KiCad (PCBNEW (6.0.4)) date 2022-03-28 09:41:55*
%MOMM*%
%LPD*%
G01*
G04 APERTURE LIST*
%ADD10O,1.700000X1.700000*%
%ADD11R,1.700000X1.700000*%
%ADD12C,1.750000*%
%ADD13C,3.987800*%
%ADD14C,2.200000*%
%ADD15C,3.048000*%
%ADD16R,1.752600X1.752600*%
%ADD17C,1.752600*%
%ADD18R,2.000000X2.000000*%
%ADD19C,2.000000*%
G04 APERTURE END LIST*
D10*
%TO.C,J3*%
X83949750Y-31869750D03*
D11*
X86489750Y-31869750D03*
%TD*%
D12*
%TO.C,MX3-1_0*%
X51834750Y-93185750D03*
X61994750Y-93185750D03*
D13*
X56914750Y-93185750D03*
%TD*%
%TO.C,MX7-2_5*%
X173596000Y-93185750D03*
D12*
X168516000Y-93185750D03*
X178676000Y-93185750D03*
%TD*%
%TO.C,MX4-3*%
X157244750Y-36035750D03*
D13*
X152164750Y-36035750D03*
D12*
X147084750Y-36035750D03*
%TD*%
%TO.C,MX5-1*%
X195344750Y-55085750D03*
X185184750Y-55085750D03*
D13*
X190264750Y-55085750D03*
%TD*%
D12*
%TO.C,MX3-0_0*%
X32784750Y-93185750D03*
D13*
X37864750Y-93185750D03*
D12*
X42944750Y-93185750D03*
%TD*%
D13*
%TO.C,MX5-0*%
X209314750Y-55085750D03*
D12*
X214394750Y-55085750D03*
X204234750Y-55085750D03*
%TD*%
D14*
%TO.C,H4*%
X199789750Y-83660750D03*
%TD*%
%TO.C,H3*%
X47389750Y-83660750D03*
%TD*%
D12*
%TO.C,MX6-0*%
X204234750Y-74135750D03*
X214394750Y-74135750D03*
D13*
X209314750Y-74135750D03*
%TD*%
%TO.C,MX0-4*%
X114064750Y-36035750D03*
D12*
X119144750Y-36035750D03*
X108984750Y-36035750D03*
%TD*%
D13*
%TO.C,MX1-3*%
X95014750Y-55085750D03*
D12*
X89934750Y-55085750D03*
X100094750Y-55085750D03*
%TD*%
D14*
%TO.C,H1*%
X45033750Y-45560750D03*
%TD*%
%TO.C,H2*%
X199789750Y-45560750D03*
%TD*%
D11*
%TO.C,J2*%
X216737500Y-96885750D03*
D10*
X216737500Y-94345750D03*
X216737500Y-91805750D03*
X216737500Y-89265750D03*
%TD*%
D12*
%TO.C,MX2-4*%
X108984750Y-74135750D03*
X119144750Y-74135750D03*
D13*
X114064750Y-74135750D03*
%TD*%
D12*
%TO.C,MX7-0_0*%
X214394750Y-93185750D03*
X204234750Y-93185750D03*
D13*
X209314750Y-93185750D03*
%TD*%
%TO.C,MX3-4_4*%
X173589650Y-84930750D03*
D12*
X128669750Y-93185750D03*
D13*
X73589850Y-84930750D03*
X123589750Y-93185750D03*
D15*
X173589650Y-100170750D03*
X73589850Y-100170750D03*
D12*
X118509750Y-93185750D03*
%TD*%
%TO.C,MX7-2_0*%
X166134750Y-93185750D03*
D13*
X171214750Y-93185750D03*
D12*
X176294750Y-93185750D03*
%TD*%
%TO.C,MX7-2_6*%
X181057250Y-93185750D03*
X170897250Y-93185750D03*
D13*
X175977250Y-93185750D03*
%TD*%
%TO.C,MX4-4*%
X133114750Y-36035750D03*
D12*
X138194750Y-36035750D03*
X128034750Y-36035750D03*
%TD*%
%TO.C,MX0-1*%
X61994750Y-36035750D03*
X51834750Y-36035750D03*
D13*
X56914750Y-36035750D03*
%TD*%
D12*
%TO.C,MX7-1_6*%
X202488500Y-93185750D03*
D13*
X197408500Y-93185750D03*
D12*
X192328500Y-93185750D03*
%TD*%
D13*
%TO.C,MX7-3_1*%
X171214750Y-84930750D03*
D15*
X171214750Y-100170750D03*
D13*
X152164750Y-93185750D03*
D15*
X133114750Y-100170750D03*
D12*
X147084750Y-93185750D03*
X157244750Y-93185750D03*
D13*
X133114750Y-84930750D03*
%TD*%
%TO.C,MX7-4_0*%
X154546000Y-84930750D03*
X142639750Y-93185750D03*
X130733500Y-84930750D03*
D12*
X147719750Y-93185750D03*
D15*
X130733500Y-100170750D03*
D12*
X137559750Y-93185750D03*
D15*
X154546000Y-100170750D03*
%TD*%
D13*
%TO.C,MX1-2*%
X75964750Y-55085750D03*
D12*
X70884750Y-55085750D03*
X81044750Y-55085750D03*
%TD*%
%TO.C,MX1-4*%
X119144750Y-55085750D03*
D13*
X114064750Y-55085750D03*
D12*
X108984750Y-55085750D03*
%TD*%
%TO.C,MX3-0_4*%
X35166000Y-93185750D03*
X45326000Y-93185750D03*
D13*
X40246000Y-93185750D03*
%TD*%
D12*
%TO.C,MX3-1_6*%
X54851000Y-93185750D03*
X44691000Y-93185750D03*
D13*
X49771000Y-93185750D03*
%TD*%
D12*
%TO.C,MX2-3*%
X89934750Y-74135750D03*
D13*
X95014750Y-74135750D03*
D12*
X100094750Y-74135750D03*
%TD*%
D13*
%TO.C,MX2-1*%
X56914750Y-74135750D03*
D12*
X61994750Y-74135750D03*
X51834750Y-74135750D03*
%TD*%
D13*
%TO.C,MX7-0_4*%
X206933500Y-93185750D03*
D12*
X212013500Y-93185750D03*
X201853500Y-93185750D03*
%TD*%
%TO.C,MX1-0*%
X32784750Y-55085750D03*
D13*
X37864750Y-55085750D03*
D12*
X42944750Y-55085750D03*
%TD*%
D16*
%TO.C,U1*%
X49294750Y-31869750D03*
D17*
X49294750Y-34409750D03*
X49294750Y-36949750D03*
X49294750Y-39489750D03*
X49294750Y-42029750D03*
X49294750Y-44569750D03*
X49294750Y-47109750D03*
X49294750Y-49649750D03*
X49294750Y-52189750D03*
X49294750Y-54729750D03*
X49294750Y-57269750D03*
X49294750Y-59809750D03*
X64534750Y-59809750D03*
X64534750Y-57269750D03*
X64534750Y-54729750D03*
X64534750Y-52189750D03*
X64534750Y-49649750D03*
X64534750Y-47109750D03*
X64534750Y-44569750D03*
X64534750Y-42029750D03*
X64534750Y-39489750D03*
X64534750Y-36949750D03*
X64534750Y-34409750D03*
X64534750Y-31869750D03*
%TD*%
D12*
%TO.C,MX5-3*%
X147084750Y-55085750D03*
X157244750Y-55085750D03*
D13*
X152164750Y-55085750D03*
%TD*%
%TO.C,MX7-1_0*%
X190264750Y-93185750D03*
D12*
X185184750Y-93185750D03*
X195344750Y-93185750D03*
%TD*%
%TO.C,MX4-1*%
X195344750Y-36035750D03*
D13*
X190264750Y-36035750D03*
D12*
X185184750Y-36035750D03*
%TD*%
D13*
%TO.C,MX7-0_3*%
X204552250Y-93185750D03*
D12*
X199472250Y-93185750D03*
X209632250Y-93185750D03*
%TD*%
D11*
%TO.C,J1*%
X216483500Y-62085750D03*
D10*
X216483500Y-64625750D03*
X216483500Y-67165750D03*
%TD*%
D12*
%TO.C,MX7-4_5*%
X139941000Y-93185750D03*
D15*
X133114750Y-100170750D03*
X156927250Y-100170750D03*
D12*
X150101000Y-93185750D03*
D13*
X156927250Y-84930750D03*
X133114750Y-84930750D03*
X145021000Y-93185750D03*
%TD*%
D12*
%TO.C,MX2-2*%
X70884750Y-74135750D03*
X81044750Y-74135750D03*
D13*
X75964750Y-74135750D03*
%TD*%
%TO.C,MX4-0*%
X209314750Y-36035750D03*
D12*
X204234750Y-36035750D03*
X214394750Y-36035750D03*
%TD*%
%TO.C,MX2-0*%
X42944750Y-74135750D03*
X32784750Y-74135750D03*
D13*
X37864750Y-74135750D03*
%TD*%
D12*
%TO.C,MX3-3_1*%
X100094750Y-93185750D03*
D13*
X95014750Y-93185750D03*
X75964750Y-84930750D03*
X114064750Y-84930750D03*
D15*
X114064750Y-100170750D03*
D12*
X89934750Y-93185750D03*
D15*
X75964750Y-100170750D03*
%TD*%
D12*
%TO.C,MX5-4*%
X138194750Y-55085750D03*
X128034750Y-55085750D03*
D13*
X133114750Y-55085750D03*
%TD*%
D12*
%TO.C,MX3-2_0*%
X81044750Y-93185750D03*
X70884750Y-93185750D03*
D13*
X75964750Y-93185750D03*
%TD*%
D12*
%TO.C,MX0-2*%
X81044750Y-36035750D03*
D13*
X75964750Y-36035750D03*
D12*
X70884750Y-36035750D03*
%TD*%
D11*
%TO.C,R1*%
X70925000Y-45560750D03*
D10*
X68385000Y-45560750D03*
%TD*%
D12*
%TO.C,MX3-2_6*%
X76282250Y-93185750D03*
D13*
X71202250Y-93185750D03*
D12*
X66122250Y-93185750D03*
%TD*%
D13*
%TO.C,MX1-1*%
X56914750Y-55085750D03*
D12*
X61994750Y-55085750D03*
X51834750Y-55085750D03*
%TD*%
D13*
%TO.C,MX7-4_8*%
X133114750Y-93185750D03*
D12*
X138194750Y-93185750D03*
X128034750Y-93185750D03*
%TD*%
%TO.C,MX3-4_2*%
X118509750Y-93185750D03*
D13*
X171214750Y-84930750D03*
D15*
X171214750Y-100170750D03*
D13*
X75964750Y-84930750D03*
D15*
X75964750Y-100170750D03*
D12*
X128669750Y-93185750D03*
D13*
X123589750Y-93185750D03*
%TD*%
D12*
%TO.C,MX5-2*%
X176294750Y-55085750D03*
D13*
X171214750Y-55085750D03*
D12*
X166134750Y-55085750D03*
%TD*%
%TO.C,MX6-3*%
X147084750Y-74135750D03*
D13*
X152164750Y-74135750D03*
D12*
X157244750Y-74135750D03*
%TD*%
%TO.C,MX3-2_5*%
X68503500Y-93185750D03*
D13*
X73583500Y-93185750D03*
D12*
X78663500Y-93185750D03*
%TD*%
%TO.C,MX3-4_8*%
X108984750Y-93185750D03*
X119144750Y-93185750D03*
D13*
X114064750Y-93185750D03*
%TD*%
%TO.C,MX3-3_5*%
X104539750Y-93185750D03*
D12*
X99459750Y-93185750D03*
D13*
X116446000Y-84930750D03*
D15*
X116446000Y-100170750D03*
X92633500Y-100170750D03*
D12*
X109619750Y-93185750D03*
D13*
X92633500Y-84930750D03*
%TD*%
D12*
%TO.C,MX0-0*%
X42944750Y-36035750D03*
X32784750Y-36035750D03*
D13*
X37864750Y-36035750D03*
%TD*%
D12*
%TO.C,MX4-2*%
X176294750Y-36035750D03*
D13*
X171214750Y-36035750D03*
D12*
X166134750Y-36035750D03*
%TD*%
D15*
%TO.C,MX3-4_3*%
X66439750Y-100170750D03*
D13*
X180739750Y-84930750D03*
X123589750Y-93185750D03*
D12*
X128669750Y-93185750D03*
D13*
X66439750Y-84930750D03*
D12*
X118509750Y-93185750D03*
D15*
X180739750Y-100170750D03*
%TD*%
D12*
%TO.C,MX3-1_5*%
X57232250Y-93185750D03*
D13*
X52152250Y-93185750D03*
D12*
X47072250Y-93185750D03*
%TD*%
D15*
%TO.C,MX3-4_7*%
X111683500Y-100170750D03*
D13*
X111683500Y-84930750D03*
D12*
X128669750Y-93185750D03*
D13*
X135496000Y-84930750D03*
X123589750Y-93185750D03*
D15*
X135496000Y-100170750D03*
D12*
X118509750Y-93185750D03*
%TD*%
D15*
%TO.C,MX3-3_0*%
X92633500Y-100170750D03*
D13*
X92633500Y-84930750D03*
D15*
X116446000Y-100170750D03*
D13*
X104539750Y-93185750D03*
X116446000Y-84930750D03*
D12*
X109619750Y-93185750D03*
X99459750Y-93185750D03*
%TD*%
%TO.C,MX6-1*%
X185184750Y-74135750D03*
D13*
X190264750Y-74135750D03*
D12*
X195344750Y-74135750D03*
%TD*%
%TO.C,MX6-4*%
X128034750Y-74135750D03*
D13*
X133114750Y-74135750D03*
D12*
X138194750Y-74135750D03*
%TD*%
D18*
%TO.C,SW1*%
X35364750Y-100435750D03*
D19*
X40364750Y-100435750D03*
X37864750Y-100435750D03*
X40364750Y-85935750D03*
X35364750Y-85935750D03*
%TD*%
D12*
%TO.C,MX6-2*%
X176294750Y-74135750D03*
D13*
X171214750Y-74135750D03*
D12*
X166134750Y-74135750D03*
%TD*%
%TO.C,MX0-3*%
X89934750Y-36035750D03*
D13*
X95014750Y-36035750D03*
D12*
X100094750Y-36035750D03*
%TD*%
%TO.C,MX7-1_5*%
X189947250Y-93185750D03*
X200107250Y-93185750D03*
D13*
X195027250Y-93185750D03*
%TD*%
%TO.C,MX3-0_3*%
X42627250Y-93185750D03*
D12*
X47707250Y-93185750D03*
X37547250Y-93185750D03*
%TD*%
M02*
