%TF.GenerationSoftware,KiCad,Pcbnew,(6.0.4)*%
%TF.CreationDate,2022-03-28T09:41:55-07:00*%
%TF.ProjectId,Electrolytes,456c6563-7472-46f6-9c79-7465732e6b69,rev?*%
%TF.SameCoordinates,Original*%
%TF.FileFunction,Profile,NP*%
%FSLAX46Y46*%
G04 Gerber Fmt 4.6, Leading zero omitted, Abs format (unit mm)*
G04 Created by KiCad (PCBNEW (6.0.4)) date 2022-03-28 09:41:55*
%MOMM*%
%LPD*%
G01*
G04 APERTURE LIST*
%TA.AperFunction,Profile*%
%ADD10C,0.120000*%
%TD*%
G04 APERTURE END LIST*
D10*
X28340000Y-28921000D02*
X28340000Y-100295000D01*
X30753000Y-102708000D02*
X216554000Y-102708000D01*
X218840000Y-100422000D02*
X218840000Y-28794000D01*
X216554000Y-26508000D02*
X30753000Y-26508000D01*
X130733500Y-82160750D02*
X135496000Y-82160750D01*
X48874750Y-63110750D02*
G75*
G03*
X48874750Y-66110750I0J-1500000D01*
G01*
X154546000Y-80156219D02*
G75*
G03*
X151546000Y-82160750I-133100J-3047981D01*
G01*
X30753000Y-26508000D02*
G75*
G03*
X28340000Y-28921000I0J-2413000D01*
G01*
X73777300Y-80156219D02*
G75*
G03*
X70777300Y-82160750I-133100J-3047981D01*
G01*
X73777300Y-82160750D02*
G75*
G03*
X70777300Y-85160750I0J-3000000D01*
G01*
X154546000Y-80156215D02*
X156927250Y-80156215D01*
X138496050Y-85160750D02*
G75*
G03*
X135496000Y-82160750I-3000050J-50D01*
G01*
X48874750Y-66110750D02*
X198304750Y-66110750D01*
X119446000Y-85160750D02*
X127733500Y-85160750D01*
X119446004Y-82160749D02*
G75*
G03*
X116446000Y-80156215I-2866904J-1043451D01*
G01*
X168214750Y-82160750D02*
X159927250Y-82160750D01*
X189514750Y-85160850D02*
G75*
G03*
X189514750Y-82160750I50J1500050D01*
G01*
X69439750Y-85160750D02*
G75*
G03*
X63439750Y-85160750I-3000000J0D01*
G01*
X76714750Y-44060750D02*
G75*
G03*
X76714750Y-47060750I0J-1500000D01*
G01*
X57664750Y-82160750D02*
G75*
G03*
X57664750Y-85160750I0J-1500000D01*
G01*
X198304750Y-63110750D02*
X48874750Y-63110750D01*
X95633500Y-85160750D02*
G75*
G03*
X89633500Y-85160750I-3000000J0D01*
G01*
X73777300Y-80156215D02*
X75777300Y-80156215D01*
X111683500Y-82160800D02*
G75*
G03*
X108683500Y-85160750I0J-3000000D01*
G01*
X170464750Y-47060850D02*
G75*
G03*
X170464750Y-44060750I50J1500050D01*
G01*
X171214750Y-80156215D02*
X173596000Y-80156215D01*
X159927250Y-85160750D02*
G75*
G03*
X156927250Y-82160750I-3000050J-50D01*
G01*
X130733500Y-80156215D02*
X135496000Y-80156215D01*
X183739750Y-82160750D02*
X189514750Y-82160750D01*
X119446050Y-85160750D02*
G75*
G03*
X116446000Y-82160750I-3000050J-50D01*
G01*
X111683500Y-82160750D02*
X116446000Y-82160750D01*
X57664750Y-82160750D02*
X63439750Y-82160750D01*
X171214750Y-82160750D02*
X173589650Y-82160750D01*
X138496004Y-82160749D02*
G75*
G03*
X135496000Y-80156215I-2866904J-1043451D01*
G01*
X159927250Y-85160750D02*
X168214750Y-85160750D01*
X154546000Y-82160750D02*
X156927250Y-82160750D01*
X111683500Y-80156215D02*
X116446000Y-80156215D01*
X218840000Y-28794000D02*
G75*
G03*
X216554000Y-26508000I-2286000J0D01*
G01*
X95633500Y-82160750D02*
G75*
G03*
X89633500Y-82160750I-3000000J-1242642D01*
G01*
X154546000Y-82160800D02*
G75*
G03*
X151546000Y-85160750I0J-3000000D01*
G01*
X127733500Y-82160750D02*
X119446000Y-82160750D01*
X130733500Y-80156219D02*
G75*
G03*
X127733500Y-82160750I-133100J-3047981D01*
G01*
X171214750Y-82160750D02*
G75*
G03*
X168214750Y-85160750I50J-3000050D01*
G01*
X108683500Y-82160750D02*
X95633500Y-82160750D01*
X171214752Y-80156170D02*
G75*
G03*
X168214750Y-82160750I-133052J-3048030D01*
G01*
X176589650Y-85160750D02*
G75*
G03*
X173589650Y-82160750I-3000050J-50D01*
G01*
X78777300Y-85160750D02*
X89633500Y-85160750D01*
X57664750Y-85160750D02*
X63439750Y-85160750D01*
X69439750Y-82160750D02*
G75*
G03*
X63439750Y-82160750I-3000000J-1242642D01*
G01*
X69439750Y-82160750D02*
X70777300Y-82160750D01*
X183739750Y-82160750D02*
G75*
G03*
X177739750Y-82160750I-3000000J-1242642D01*
G01*
X89633500Y-82160750D02*
X78777300Y-82160750D01*
X108683500Y-85160750D02*
X95633500Y-85160750D01*
X78777350Y-85160750D02*
G75*
G03*
X75777300Y-82160750I-3000050J-50D01*
G01*
X76714750Y-44060750D02*
X170464750Y-44060750D01*
X130733500Y-82160800D02*
G75*
G03*
X127733500Y-85160750I0J-3000000D01*
G01*
X111683500Y-80156219D02*
G75*
G03*
X108683500Y-82160750I-133100J-3047981D01*
G01*
X176596000Y-82160750D02*
X177739750Y-82160750D01*
X177739750Y-85160750D02*
X176589650Y-85160750D01*
X198304750Y-66110850D02*
G75*
G03*
X198304750Y-63110750I50J1500050D01*
G01*
X176596004Y-82160749D02*
G75*
G03*
X173596000Y-80156215I-2866904J-1043451D01*
G01*
X138496000Y-82160750D02*
X151546000Y-82160750D01*
X159927208Y-82160765D02*
G75*
G03*
X156927250Y-80156215I-2866908J-1043435D01*
G01*
X78777304Y-82160749D02*
G75*
G03*
X75777300Y-80156215I-2866904J-1043451D01*
G01*
X76714750Y-47060750D02*
X170464750Y-47060750D01*
X73777300Y-82160750D02*
X75777300Y-82160750D01*
X183739750Y-85160750D02*
X189514750Y-85160750D01*
X216554000Y-102708000D02*
G75*
G03*
X218840000Y-100422000I0J2286000D01*
G01*
X69439750Y-85160750D02*
X70777300Y-85160750D01*
X138496000Y-85160750D02*
X151546000Y-85160750D01*
X28340000Y-100295000D02*
G75*
G03*
X30753000Y-102708000I2413000J0D01*
G01*
X183739750Y-85160750D02*
G75*
G03*
X177739750Y-85160750I-3000000J0D01*
G01*
M02*
